<?xml version="1.0" encoding="UTF-8"?>
<svg id="Livello_1" data-name="Livello 1" xmlns="http://www.w3.org/2000/svg" viewBox="0 0 1028.43 539.61">
  <circle cx="269.8" cy="269.8" r="257.78" style="fill: #39e3e2; stroke-width: 0px;"/>
  <circle cx="162.64" cy="162.53" r="60.25" style="fill: #fff; stroke-width: 0px;"/>
  <path d="m526.39,296.24c-22.38-.6-45.96.24-70.37,3.21-156.22,18.81-269.09,111.8-332.08,176.58,2.86,2.26,5.48,5,7.62,8.1,1.31,1.91,2.62,3.69,3.93,5.48,10.84,2.62,21.79,4.64,32.51,6.79,15.95,3.21,32.15,5.48,48.1,8.1,14.88,2.38,29.53,3.93,44.05,8.45,1.31.36,2.62.83,3.93,1.19l18.46,1.31c8.93-.6,17.86-.48,26.91-.48,17.74-5.6,67.51-21.19,71.2-23.81,4.17-2.98,52.87-41.32,60.84-47.51.71-.6,1.43-1.19,2.02-2.02l37.03-46.91c.48-.71.95-1.43,1.31-2.14l47.27-96.56-2.74.24Z" style="fill: #fff; stroke-width: 0px;"/>
  <path d="m348.39,203.96h-37.51c-13.57,0-24.17-10.12-24.53-23.1-.36-14.05,9.64-25.72,23.34-25.84,26.08-.36,52.03-.36,78.11,0,9.88.12,17.03,5.83,21.19,14.76,4.29,9.05,3.1,17.74-3.1,25.6-4.76,6.19-11.55,8.69-19.17,8.81-12.74-.12-25.6-.24-38.34-.24Z" style="fill: #0d2d41; stroke-width: 0px;"/>
  <path d="m460.67,78.94C409.71,27.98,341.96,0,269.8,0S130.02,28.1,79.06,79.06C28.1,129.9,0,197.65,0,269.8s28.1,139.78,79.06,190.74c50.96,50.96,118.71,79.06,190.74,79.06s139.78-28.1,190.74-79.06c50.96-50.96,79.06-118.71,79.06-190.74.12-72.15-27.98-139.9-78.94-190.86Zm-70.96,319.69c1.91-6.79,2.98-13.22,2.38-19.88-1.79-16.91-10.24-29.05-26.19-35.12-11.67-4.41-19.77-11.91-22.27-23.93-2.38-11.07-2.02-22.62,0-33.7,2.26-12.86,13.22-21.07,26.08-21.19,14.41-.12,28.81,0,43.22,0,1.07,0,2.26.12,4.64.24-5.12,1.91-9.05,3.1-12.38,5.6-9.05,6.79-12.74,17.15-9.64,27.15,3.21,10.12,11.91,16.79,23.22,16.91,26.67.12,53.22,0,79.89-.12,8.45,0,8.33,0,6.67,8.33-3.81,19.41-10.84,37.62-19.05,55.48-.95,2.02-2.02,3.21-4.52,3.45-31.08,2.02-61.44,8.45-92.04,16.79Zm75.01,14.05c-47.27,63.34-137.28,111.68-244.92,91.8,1.43-2.02,3.69-2.02,5.48-2.74,27.86-9.88,53.82-23.69,80.25-36.67,33.34-16.43,66.92-32.27,103.11-41.91,16.79-4.41,33.81-7.98,51.08-10.36,1.55,0,3.1,0,5-.12Zm41.44-140.5c-5.72-4.52-12.14-6.55-19.41-6.55-12.98.12-25.84,0-38.82-.12-1.79,0-3.45-.24-5.24-.24,4.29-2.98,8.45-5.48,11.67-9.41,5.95-7.62,7.86-15.84,4.52-25.12-3.45-9.53-10.36-16.07-20.24-16.55-20.48-.95-41.08-1.55-61.56.36-10.12.95-17.15,7.14-20.84,16.55-1.43,3.57-3.45,5.6-7.14,7.02-6.55,2.62-12.14,6.91-16.43,12.62-1.67,2.26-2.98,3.21-5.12.12-3.93-5.48-9.05-9.88-15-13.1-1.79-.95-2.5-2.38-3.1-4.05-4.76-12.5-15.36-20-28.69-20.12-12.14-.12-24.41-.12-36.55,0-13.22.12-23.58,8.69-25.96,21.31-2.14,11.43,4.76,23.1,16.79,27.86,3.69,1.43,7.5,1.55,11.43,1.55,14.76.12,29.53.71,44.17,0,11.91-.6,23.46,13.1,23.69,22.62.12,5,0,10.12,0,15.12,0,2.38-.83,3.45-3.33,3.45-10.84-.12-21.67,0-32.62,0-1.91,0-2.86-.6-3.69-2.5-6.31-13.69-17.03-19.88-32.03-19.77-19.05.24-38.1,0-57.15.12-4.64,0-9.29.24-13.69,1.43-12.26,3.33-19.77,14.17-18.46,26.91,1.19,11.79,11.07,21.43,23.46,21.55,29.89.36,59.77.24,89.78.24,15.36,0,30.72.12,45.96-.12,3.21,0,5,.95,6.43,3.93,6.79,13.81,16.67,24.41,31.55,29.89,10.72,4.05,14.88,11.43,12.98,22.86-1.67,10.12-6.43,18.81-15.84,22.98-39.65,17.74-77.63,38.82-117.64,55.96-17.74,7.62-35.96,13.93-54.65,18.93-2.5.71-4.52.36-6.79-.71-66.08-31.55-110.26-82.16-130.73-152.64-9.53-32.86-10.95-66.44-6.07-100.37,5.72-39.41,20.84-75.01,44.89-106.56,31.79-41.79,72.51-71.68,122.88-86.92,52.63-15.95,105.25-14.76,156.57,5.72,55.48,22.15,97.99,59.53,126.45,112.28,18.34,34.05,27.39,70.49,27.98,109.18v1.79c-.12,1.31.48,3.1-.71,3.69-1.55,1.43-2.62-.36-3.69-1.19Z" style="fill: #04253c; stroke-width: 0px;"/>
  <path d="m832.63,336.6c-9.41,2.26-18.1,3.45-26.79,1.55-22.86-4.76-40.13-25-40.84-47.86-.83-23.58,14.65-44.41,37.74-50.72,11.31-3.1,22.38-1.79,33.22,2.38,2.14.83,3.57.83,5.6-.6,9.53-6.55,21.91-1.43,24.29,9.88.48,2.5.71,5,.71,7.5,0,21.67.24,43.46,0,65.13-.24,16.31-5,30.96-16.67,42.98-18.81,19.29-52.98,20-72.51,1.31-5.72-5.48-6.79-14.29-2.5-20.36,4.64-6.43,11.67-7.86,19.41-3.69,3.1,1.67,5.95,3.93,9.17,5.48,9.29,4.64,16.19,3.33,23.22-4.29,2.14-2.26,4.05-4.88,5.95-8.69Zm-35.72-48.7c-.24,11.07,7.26,19.17,18.22,19.41,10.72.36,19.05-7.74,19.17-18.57.12-10.72-7.26-18.69-17.62-19.05-11.67-.24-19.53,6.91-19.76,18.22Z" style="stroke-width: 0px;"/>
  <path d="m980.15,288.97v29.41c0,2.86-.24,5.6-.95,8.33-2.86,10.95-14.53,15.6-23.81,9.29-2.26-1.55-3.93-1.55-6.31-.48-26.31,10.95-57.15-2.5-67.15-29.17-10-26.55,4.64-56.91,31.79-65.84,11.91-3.93,23.69-3.21,35.36,1.55,1.79.71,3.1,1.55,5.24.12,12.14-8.1,24.88-1.43,25.72,13.45v1.31c.12,10.6.12,21.31.12,32.03h0Zm-51.08,18.57c11.55,0,18.93-7.26,19.05-18.93.12-10.95-7.62-18.81-18.69-18.81s-18.57,7.86-18.69,18.57c-.24,11.07,7.5,19.05,18.34,19.17Z" style="stroke-width: 0px;"/>
  <path d="m670.22,266.59c4.41-7.02,8.57-14.05,13.22-20.96,4.52-6.91,13.22-8.81,20.36-4.76,7.62,4.29,9.88,13.22,5.12,21.19-4.76,7.86-9.64,15.72-14.76,23.34-1.31,2.02-1.31,3.45.12,5.48,4.88,7.38,9.64,15,14.41,22.5,5.36,8.69,3.81,17.26-4.05,22.03-7.86,4.76-16.55,2.5-21.91-5.83-4.17-6.55-8.33-13.22-12.98-20.6-.83,6.07.12,11.31-.95,16.31-2.26,11.31-14.17,16.67-24.17,10.6-3.45-2.14-5.72-5.12-6.55-9.17-.6-3.1-.83-6.19-.83-9.29v-96.8c0-2.98.12-5.95.71-8.93,1.43-7.86,7.38-12.74,15.36-12.62,7.86,0,14.05,5.12,15.24,12.98,1.55,9.41.48,19.05.71,28.46.12,8.57,0,17.03,0,25.6.36.36.6.48.95.48Z" style="stroke-width: 0px;"/>
  <path d="m621.05,288.85c0,10.84.12,21.67,0,32.51-.24,9.88-5,15.6-13.57,17.03-8.45,1.43-16.91-3.93-17.5-12.38-1.67-24.41-1.55-48.94,0-73.46.48-8.22,6.91-12.86,14.88-12.98,7.98-.12,13.81,4.52,15.72,12.38.6,2.62.71,5.24.71,7.98-.12,9.53-.12,19.29-.24,28.93h0Z" style="stroke-width: 0px;"/>
  <path d="m754.17,289.21c0,10.6.12,21.07,0,31.67-.12,10.24-4.76,15.95-13.57,17.5-8.45,1.43-16.07-3.81-17.62-12.26-.48-2.5-.71-5-.71-7.5v-57.99c0-2.86,0-5.6.6-8.45,1.67-7.98,7.26-12.62,15.36-12.62s13.45,4.64,15.24,12.26c.71,3.1.71,6.19.71,9.29v28.1h0Z" style="stroke-width: 0px;"/>
  <path d="m996.23,288.97c0-10.95-.24-22.03.12-32.98.36-13.1,12.03-20.24,23.34-14.65,5.83,2.86,7.98,8.22,8.45,14.17.24,4.05.24,7.98.24,12.03,0,17.38.12,34.77,0,52.15-.12,11.07-4.64,17.15-13.45,18.69-8.69,1.55-16.31-3.81-17.98-12.5-.71-3.21-.6-6.55-.6-9.76-.24-9.05-.12-18.1-.12-27.15h0Z" style="stroke-width: 0px;"/>
  <path d="m737.74,203.72c9.05,0,16.55,7.38,16.55,16.31,0,8.45-7.5,15.84-16.07,15.72-8.93-.12-16.07-7.38-16.07-16.31,0-8.33,7.38-15.72,15.6-15.72Z" style="stroke-width: 0px;"/>
  <path d="m604.98,203.72c9.05.12,16.43,7.62,16.19,16.55-.12,8.45-7.74,15.72-16.31,15.6-8.69-.24-15.84-7.5-15.84-16.07.12-8.69,7.5-16.19,15.95-16.07Z" style="stroke-width: 0px;"/>
  <path d="m1011.83,203.72c9.05,0,16.67,7.5,16.55,16.31-.12,8.33-7.74,15.84-16.19,15.72-8.69-.12-15.84-7.14-15.95-15.84-.12-8.57,7.26-16.31,15.6-16.19Z" style="stroke-width: 0px;"/>
</svg>